<svg xmlns="http://www.w3.org/2000/svg" xmlns:xlink="http://www.w3.org/1999/xlink" width="1920" zoomAndPan="magnify" viewBox="0 0 1440 809.999993" height="1080" preserveAspectRatio="xMidYMid meet" version="1.0"><defs><clipPath id="23c1ece619"><path d="M 354.539062 81 L 1002.539062 81 L 1002.539062 729 L 354.539062 729 Z M 354.539062 81 " clip-rule="nonzero"/></clipPath></defs><rect x="-144" width="1728" fill="#ffffff" y="-80.999999" height="971.999992" fill-opacity="1"/><rect x="-144" width="1728" fill="#959682" y="-80.999999" height="971.999992" fill-opacity="1"/><g clip-path="url(#23c1ece619)"><path stroke-linecap="round" transform="matrix(0, -0.184071, 0.184071, 0, 678.53282, 404.992728)" fill="none" stroke-linejoin="round" d="M 1671.997963 -0.00852979 C 1671.997963 27.367131 1671.318877 54.70035 1669.981926 82.033568 C 1668.644975 109.366786 1666.628938 136.657561 1663.955037 163.884672 C 1661.259913 191.111783 1657.928147 218.27523 1653.896073 245.332569 C 1649.88522 272.41113 1645.216503 299.362363 1639.868699 326.186266 C 1634.542117 353.031391 1628.536449 379.727966 1621.894137 406.25477 C 1615.251825 432.802794 1607.951649 459.181048 1599.993608 485.347087 C 1592.056789 511.534347 1583.483326 537.509393 1574.251998 563.272224 C 1565.041892 589.035056 1555.195143 614.564451 1544.732971 639.83919 C 1534.249579 665.135149 1523.171986 690.134009 1511.478971 714.878211 C 1499.764734 739.601192 1487.477519 764.048294 1474.574882 788.177074 C 1461.672245 812.305855 1448.196628 836.116313 1434.126812 859.587229 C 1420.056995 883.058145 1405.4142 906.168296 1390.219647 928.917682 C 1375.025094 951.667069 1359.257562 974.03447 1342.959494 995.998663 C 1326.661426 1017.984077 1309.832822 1039.545063 1292.473682 1060.702842 C 1275.114542 1081.86062 1257.246087 1102.572748 1238.868317 1122.839226 C 1220.490548 1143.126925 1201.624685 1162.926531 1182.291951 1182.280487 C 1162.937995 1201.634443 1143.117168 1220.500305 1122.85069 1238.878075 C 1102.562991 1257.255844 1081.850863 1275.124299 1060.714306 1292.483439 C 1039.556527 1309.842579 1017.995542 1326.671183 996.010127 1342.969251 C 974.024712 1359.267319 951.657312 1375.01363 928.907925 1390.208183 C 906.158538 1405.423957 883.048387 1420.045531 859.577472 1434.115348 C 836.106556 1448.185164 812.317319 1461.682002 788.167317 1474.563418 C 764.038537 1487.466055 739.612656 1499.774492 714.868454 1511.467506 C 690.145473 1523.160521 665.125392 1534.259336 639.850654 1544.721507 C 614.575915 1555.2049 589.04652 1565.051649 563.283688 1574.261755 C 537.520857 1583.471862 511.545811 1592.066546 485.358551 1600.003365 C 459.17129 1607.940185 432.814259 1615.240361 406.266234 1621.882673 C 379.718209 1628.546206 353.021634 1634.530653 326.19773 1639.878456 C 299.352605 1645.205038 272.401373 1649.894977 245.322812 1653.90583 C 218.265473 1657.916683 191.123247 1661.269671 163.874915 1663.943572 C 136.647804 1666.638696 109.37825 1668.633511 82.045032 1669.991684 C 54.711814 1671.328634 27.357374 1672.007721 0.00293433 1672.007721 C -27.372727 1672.007721 -54.705945 1671.328634 -82.039163 1669.991684 C -109.372381 1668.633511 -136.663157 1666.638696 -163.890268 1663.943572 C -191.117379 1661.269671 -218.259604 1657.916683 -245.338165 1653.90583 C -272.395504 1649.894977 -299.346737 1645.205038 -326.191862 1639.878456 C -353.036987 1634.530653 -379.71234 1628.546206 -406.260365 1621.882673 C -432.80839 1615.240361 -459.165422 1607.940185 -485.352682 1600.003365 C -511.539942 1592.066546 -537.514988 1583.471862 -563.27782 1574.261755 C -589.040651 1565.051649 -614.570047 1555.2049 -639.844785 1544.721507 C -665.119523 1534.259336 -690.139604 1523.160521 -714.862585 1511.467506 C -739.606787 1499.774492 -764.032668 1487.466055 -788.18267 1474.563418 C -812.31145 1461.682002 -836.100687 1448.185164 -859.571603 1434.115348 C -883.042519 1420.045531 -906.15267 1405.423957 -928.923278 1390.208183 C -951.672664 1375.01363 -974.040065 1359.267319 -996.004258 1342.969251 C -1017.989673 1326.671183 -1039.550659 1309.842579 -1060.708437 1292.483439 C -1081.866216 1275.124299 -1102.578344 1257.255844 -1122.844821 1238.878075 C -1143.111299 1220.500305 -1162.932127 1201.634443 -1182.286082 1182.280487 C -1201.640038 1162.926531 -1220.484679 1143.126925 -1238.862449 1122.839226 C -1257.240218 1102.572748 -1275.108673 1081.86062 -1292.467813 1060.702842 C -1309.826953 1039.545063 -1326.655557 1017.984077 -1342.953625 995.998663 C -1359.272915 974.03447 -1375.019225 951.667069 -1390.213778 928.917682 C -1405.429553 906.168296 -1420.051127 883.058145 -1434.120943 859.587229 C -1448.19076 836.116313 -1461.666376 812.305855 -1474.569013 788.177074 C -1487.47165 764.048294 -1499.780087 739.601192 -1511.473102 714.878211 C -1523.166117 690.134009 -1534.264931 665.135149 -1544.727103 639.83919 C -1555.189274 614.564451 -1565.036023 589.035056 -1574.267351 563.272224 C -1583.477457 537.509393 -1592.05092 511.534347 -1600.008961 485.347087 C -1607.945781 459.181048 -1615.245957 432.802794 -1621.888268 406.25477 C -1628.53058 379.727966 -1634.536248 353.031391 -1639.86283 326.186266 C -1645.210634 299.362363 -1649.879351 272.41113 -1653.911425 245.332569 C -1657.922278 218.27523 -1661.275266 191.111783 -1663.949168 163.884672 C -1666.62307 136.657561 -1668.639107 109.366786 -1669.976058 82.033568 C -1671.33423 54.70035 -1671.992095 27.367131 -1671.992095 -0.00852979 C -1671.992095 -27.362969 -1671.33423 -54.717409 -1669.976058 -82.050627 C -1668.639107 -109.362624 -1666.62307 -136.653399 -1663.949168 -163.88051 C -1661.275266 -191.107621 -1657.922278 -218.271068 -1653.911425 -245.328408 C -1649.879351 -272.406969 -1645.210634 -299.358201 -1639.86283 -326.182104 C -1634.536248 -353.027229 -1628.53058 -379.723804 -1621.888268 -406.271829 C -1615.245957 -432.798633 -1607.945781 -459.176886 -1600.008961 -485.364146 C -1592.05092 -511.551407 -1583.477457 -537.505231 -1574.267351 -563.289284 C -1565.036023 -589.052115 -1555.189274 -614.56029 -1544.727103 -639.856249 C -1534.264931 -665.130988 -1523.166117 -690.129847 -1511.473102 -714.874049 C -1499.780087 -739.618251 -1487.47165 -764.044132 -1474.569013 -788.172912 C -1461.666376 -812.301693 -1448.19076 -836.112152 -1434.120943 -859.583067 C -1420.051127 -883.053983 -1405.429553 -906.164134 -1390.213778 -928.913521 C -1375.019225 -951.662907 -1359.272915 -974.030308 -1342.953625 -996.015722 C -1326.655557 -1017.979916 -1309.826953 -1039.562123 -1292.467813 -1060.69868 C -1275.108673 -1081.856458 -1257.240218 -1102.568586 -1238.862449 -1122.856286 C -1220.484679 -1143.122763 -1201.640038 -1162.943591 -1182.286082 -1182.276325 C -1162.932127 -1201.630281 -1143.111299 -1220.496143 -1122.844821 -1238.873913 C -1102.578344 -1257.251682 -1081.866216 -1275.120137 -1060.708437 -1292.479277 C -1039.550659 -1309.838417 -1017.989673 -1326.667021 -996.004258 -1342.965089 C -974.040065 -1359.263157 -951.672664 -1375.009468 -928.923278 -1390.225242 C -906.15267 -1405.419795 -883.042519 -1420.062591 -859.571603 -1434.132407 C -836.100687 -1448.181002 -812.31145 -1461.67784 -788.18267 -1474.580477 C -764.032668 -1487.461893 -739.606787 -1499.77033 -714.862585 -1511.463345 C -690.139604 -1523.177581 -665.119523 -1534.255174 -639.844785 -1544.717345 C -614.570047 -1555.200738 -589.040651 -1565.047487 -563.27782 -1574.257594 C -537.514988 -1583.488921 -511.539942 -1592.062384 -485.352682 -1599.999204 C -459.165422 -1607.957245 -432.80839 -1615.2362 -406.260365 -1621.899733 C -379.71234 -1628.542044 -353.036987 -1634.526491 -326.191862 -1639.874295 C -299.346737 -1645.200877 -272.395504 -1649.890815 -245.338165 -1653.901668 C -218.259604 -1657.912521 -191.117379 -1661.265509 -163.890268 -1663.939411 C -136.663157 -1666.634534 -109.372381 -1668.650571 -82.039163 -1669.987522 C -54.705945 -1671.324473 -27.372727 -1672.003559 0.00293433 -1672.003559 C 27.357374 -1672.003559 54.711814 -1671.324473 82.045032 -1669.987522 C 109.37825 -1668.650571 136.647804 -1666.634534 163.874915 -1663.939411 C 191.123247 -1661.265509 218.265473 -1657.912521 245.322812 -1653.901668 C 272.401373 -1649.890815 299.352605 -1645.200877 326.19773 -1639.874295 C 353.021634 -1634.526491 379.718209 -1628.542044 406.266234 -1621.899733 C 432.814259 -1615.2362 459.17129 -1607.957245 485.358551 -1599.999204 C 511.545811 -1592.062384 537.520857 -1583.488921 563.283688 -1574.257594 C 589.04652 -1565.047487 614.575915 -1555.200738 639.850654 -1544.717345 C 665.125392 -1534.255174 690.145473 -1523.177581 714.868454 -1511.463345 C 739.612656 -1499.77033 764.038537 -1487.461893 788.167317 -1474.580477 C 812.317319 -1461.67784 836.106556 -1448.181002 859.577472 -1434.132407 C 883.048387 -1420.062591 906.158538 -1405.419795 928.907925 -1390.225242 C 951.657312 -1375.009468 974.024712 -1359.263157 996.010127 -1342.965089 C 1017.995542 -1326.667021 1039.556527 -1309.838417 1060.714306 -1292.479277 C 1081.850863 -1275.120137 1102.562991 -1257.251682 1122.85069 -1238.873913 C 1143.117168 -1220.496143 1162.937995 -1201.630281 1182.291951 -1182.276325 C 1201.624685 -1162.943591 1220.490548 -1143.122763 1238.868317 -1122.856286 C 1257.246087 -1102.568586 1275.114542 -1081.856458 1292.473682 -1060.69868 C 1309.832822 -1039.562123 1326.661426 -1017.979916 1342.959494 -996.015722 C 1359.257562 -974.030308 1375.025094 -951.662907 1390.219647 -928.913521 C 1405.4142 -906.164134 1420.056995 -883.053983 1434.126812 -859.583067 C 1448.196628 -836.112152 1461.672245 -812.301693 1474.574882 -788.172912 C 1487.477519 -764.044132 1499.764734 -739.618251 1511.478971 -714.874049 C 1523.171986 -690.129847 1534.249579 -665.130988 1544.732971 -639.856249 C 1555.195143 -614.56029 1565.041892 -589.052115 1574.251998 -563.289284 C 1583.483326 -537.505231 1592.056789 -511.551407 1599.993608 -485.364146 C 1607.951649 -459.176886 1615.251825 -432.798633 1621.894137 -406.271829 C 1628.536449 -379.723804 1634.542117 -353.027229 1639.868699 -326.182104 C 1645.216503 -299.358201 1649.88522 -272.406969 1653.896073 -245.328408 C 1657.928147 -218.271068 1661.259913 -191.107621 1663.955037 -163.88051 C 1666.628938 -136.653399 1668.644975 -109.362624 1669.981926 -82.050627 C 1671.318877 -54.717409 1671.997963 -27.362969 1671.997963 -0.00852979 Z M 1671.997963 -0.00852979 " stroke="#ffffff" stroke-width="176.38" stroke-opacity="1" stroke-miterlimit="4"/></g><path stroke-linecap="round" transform="matrix(0.145419, 0, 0, 0.145419, 13.678863, -259.861256)" fill="none" stroke-linejoin="round" d="M 5673.013158 5422.987967 L 4402.9998 4575.999005 L 5673.013158 3730.003939 Z M 5673.013158 5422.987967 " stroke="#ffffff" stroke-width="176.38" stroke-opacity="1" stroke-miterlimit="4"/><path stroke-linecap="round" transform="matrix(0.145419, 0, 0, 0.145419, 13.678863, -259.861256)" fill="none" stroke-linejoin="round" d="M 4402.9998 5413.989163 L 3133.013305 4567.994098 L 4402.9998 3721.005135 Z M 4402.9998 5413.989163 " stroke="#ffffff" stroke-width="176.38" stroke-opacity="1" stroke-miterlimit="4"/><path stroke-linecap="butt" transform="matrix(0, -0.75, 0.75, 0, 1358.249938, 809.999979)" fill="none" stroke-linejoin="miter" d="M -0.0000276667 0.500083 L 1080.000027 0.500083 " stroke="#ffffff" stroke-width="1" stroke-opacity="1" stroke-miterlimit="4"/></svg>