<svg xmlns="http://www.w3.org/2000/svg" xmlns:xlink="http://www.w3.org/1999/xlink" width="1920" zoomAndPan="magnify" viewBox="0 0 1440 809.999993" height="1080" preserveAspectRatio="xMidYMid meet" version="1.0"><defs><clipPath id="53cfaa3762"><path d="M 313.523438 0 L 1126.523438 0 L 1126.523438 810 L 313.523438 810 Z M 313.523438 0 " clip-rule="nonzero"/></clipPath></defs><g clip-path="url(#53cfaa3762)"><path fill="#004aad" d="M 720.175781 0.285156 C 495.546875 0.285156 313.523438 182.308594 313.523438 406.9375 C 313.523438 608.679688 460.691406 776.269531 653.277344 807.957031 L 653.277344 532.277344 L 549.769531 532.277344 L 549.769531 411.511719 L 653.277344 411.511719 L 653.277344 323.84375 C 653.277344 228.785156 730.386719 164.351562 825.445312 164.351562 C 867.695312 164.351562 894.101562 170.691406 894.101562 170.691406 L 894.101562 272.089844 L 825.445312 272.089844 C 796.929688 272.089844 773.691406 295.328125 773.691406 323.84375 L 773.691406 411.511719 L 884.597656 411.511719 L 869.105469 532.277344 L 773.691406 532.277344 L 773.691406 809.714844 C 972.617188 783.308594 1126.121094 612.902344 1126.121094 406.9375 C 1126.476562 182.308594 944.449219 0.285156 720.175781 0.285156 Z M 720.175781 0.285156 " fill-opacity="1" fill-rule="nonzero"/></g></svg>