<svg xmlns="http://www.w3.org/2000/svg" xmlns:xlink="http://www.w3.org/1999/xlink" width="1920" zoomAndPan="magnify" viewBox="0 0 1440 809.999993" height="1080" preserveAspectRatio="xMidYMid meet" version="1.0"><defs><clipPath id="7680e4be3b"><path d="M 315 0 L 1125 0 L 1125 810 L 315 810 Z M 315 0 " clip-rule="nonzero"/></clipPath><clipPath id="4eb119a82d"><path d="M 720 0 C 726.628906 0 733.253906 0.164062 739.871094 0.488281 C 746.492188 0.8125 753.101562 1.300781 759.695312 1.949219 C 766.292969 2.601562 772.871094 3.410156 779.425781 4.382812 C 785.980469 5.355469 792.511719 6.488281 799.011719 7.78125 C 805.511719 9.074219 811.976562 10.527344 818.40625 12.136719 C 824.835938 13.746094 831.222656 15.515625 837.566406 17.4375 C 843.90625 19.363281 850.199219 21.441406 856.441406 23.675781 C 862.679688 25.90625 868.863281 28.292969 874.988281 30.828125 C 881.109375 33.367188 887.167969 36.050781 893.160156 38.882812 C 899.152344 41.71875 905.070312 44.699219 910.914062 47.820312 C 916.761719 50.945312 922.527344 54.210938 928.210938 57.621094 C 933.898438 61.027344 939.496094 64.574219 945.003906 68.253906 C 950.515625 71.9375 955.933594 75.753906 961.257812 79.699219 C 966.582031 83.648438 971.804688 87.726562 976.929688 91.929688 C 982.054688 96.136719 987.070312 100.464844 991.980469 104.914062 C 996.890625 109.367188 1001.691406 113.933594 1006.378906 118.621094 C 1011.066406 123.308594 1015.632812 128.109375 1020.085938 133.019531 C 1024.535156 137.929688 1028.863281 142.945312 1033.070312 148.070312 C 1037.273438 153.195312 1041.351562 158.417969 1045.300781 163.742188 C 1049.246094 169.066406 1053.0625 174.484375 1056.746094 179.992188 C 1060.425781 185.503906 1063.972656 191.101562 1067.378906 196.789062 C 1070.789062 202.472656 1074.054688 208.238281 1077.179688 214.085938 C 1080.300781 219.929688 1083.28125 225.847656 1086.117188 231.839844 C 1088.949219 237.832031 1091.632812 243.890625 1094.171875 250.011719 C 1096.707031 256.136719 1099.09375 262.320312 1101.324219 268.558594 C 1103.558594 274.800781 1105.636719 281.09375 1107.5625 287.433594 C 1109.484375 293.777344 1111.253906 300.164062 1112.863281 306.59375 C 1114.472656 313.023438 1115.925781 319.488281 1117.21875 325.988281 C 1118.511719 332.488281 1119.644531 339.019531 1120.617188 345.574219 C 1121.589844 352.128906 1122.398438 358.707031 1123.050781 365.304688 C 1123.699219 371.898438 1124.1875 378.507812 1124.511719 385.128906 C 1124.835938 391.746094 1125 398.371094 1125 405 C 1125 411.628906 1124.835938 418.253906 1124.511719 424.871094 C 1124.1875 431.492188 1123.699219 438.101562 1123.050781 444.695312 C 1122.398438 451.292969 1121.589844 457.871094 1120.617188 464.425781 C 1119.644531 470.980469 1118.511719 477.511719 1117.21875 484.011719 C 1115.925781 490.511719 1114.472656 496.976562 1112.863281 503.40625 C 1111.253906 509.835938 1109.484375 516.222656 1107.5625 522.566406 C 1105.636719 528.90625 1103.558594 535.199219 1101.324219 541.441406 C 1099.09375 547.679688 1096.707031 553.863281 1094.171875 559.988281 C 1091.632812 566.109375 1088.949219 572.167969 1086.117188 578.160156 C 1083.28125 584.152344 1080.300781 590.070312 1077.179688 595.914062 C 1074.054688 601.761719 1070.789062 607.527344 1067.378906 613.210938 C 1063.972656 618.898438 1060.425781 624.496094 1056.746094 630.003906 C 1053.0625 635.515625 1049.246094 640.933594 1045.300781 646.257812 C 1041.351562 651.582031 1037.273438 656.804688 1033.070312 661.929688 C 1028.863281 667.054688 1024.535156 672.070312 1020.085938 676.980469 C 1015.632812 681.890625 1011.066406 686.691406 1006.378906 691.378906 C 1001.691406 696.066406 996.890625 700.632812 991.980469 705.085938 C 987.070312 709.535156 982.054688 713.863281 976.929688 718.070312 C 971.804688 722.273438 966.582031 726.351562 961.257812 730.300781 C 955.933594 734.246094 950.515625 738.0625 945.003906 741.746094 C 939.496094 745.425781 933.898438 748.972656 928.210938 752.378906 C 922.527344 755.789062 916.761719 759.054688 910.914062 762.179688 C 905.070312 765.300781 899.152344 768.28125 893.160156 771.117188 C 887.167969 773.949219 881.109375 776.632812 874.988281 779.171875 C 868.863281 781.707031 862.679688 784.09375 856.441406 786.324219 C 850.199219 788.558594 843.90625 790.636719 837.566406 792.5625 C 831.222656 794.484375 824.835938 796.253906 818.40625 797.863281 C 811.976562 799.472656 805.511719 800.925781 799.011719 802.21875 C 792.511719 803.511719 785.980469 804.644531 779.425781 805.617188 C 772.871094 806.589844 766.292969 807.398438 759.695312 808.050781 C 753.101562 808.699219 746.492188 809.1875 739.871094 809.511719 C 733.253906 809.835938 726.628906 810 720 810 C 713.371094 810 706.746094 809.835938 700.128906 809.511719 C 693.507812 809.1875 686.898438 808.699219 680.304688 808.050781 C 673.707031 807.398438 667.128906 806.589844 660.574219 805.617188 C 654.019531 804.644531 647.488281 803.511719 640.988281 802.21875 C 634.488281 800.925781 628.023438 799.472656 621.59375 797.863281 C 615.164062 796.253906 608.777344 794.484375 602.433594 792.5625 C 596.09375 790.636719 589.800781 788.558594 583.558594 786.324219 C 577.320312 784.09375 571.136719 781.707031 565.011719 779.171875 C 558.890625 776.632812 552.832031 773.949219 546.839844 771.117188 C 540.847656 768.28125 534.929688 765.300781 529.085938 762.179688 C 523.238281 759.054688 517.472656 755.789062 511.789062 752.378906 C 506.101562 748.972656 500.503906 745.425781 494.992188 741.746094 C 489.484375 738.0625 484.066406 734.246094 478.742188 730.300781 C 473.417969 726.351562 468.195312 722.273438 463.070312 718.070312 C 457.945312 713.863281 452.929688 709.535156 448.019531 705.085938 C 443.109375 700.632812 438.308594 696.066406 433.621094 691.378906 C 428.933594 686.691406 424.367188 681.890625 419.914062 676.980469 C 415.464844 672.070312 411.136719 667.054688 406.929688 661.929688 C 402.726562 656.804688 398.648438 651.582031 394.699219 646.257812 C 390.753906 640.933594 386.9375 635.515625 383.253906 630.003906 C 379.574219 624.496094 376.027344 618.898438 372.621094 613.210938 C 369.210938 607.527344 365.945312 601.761719 362.820312 595.914062 C 359.699219 590.070312 356.71875 584.152344 353.882812 578.160156 C 351.050781 572.167969 348.367188 566.109375 345.828125 559.988281 C 343.292969 553.863281 340.90625 547.679688 338.675781 541.441406 C 336.441406 535.199219 334.363281 528.90625 332.4375 522.566406 C 330.515625 516.222656 328.746094 509.835938 327.136719 503.40625 C 325.527344 496.976562 324.074219 490.511719 322.78125 484.011719 C 321.488281 477.511719 320.355469 470.980469 319.382812 464.425781 C 318.410156 457.871094 317.601562 451.292969 316.949219 444.695312 C 316.300781 438.101562 315.8125 431.492188 315.488281 424.871094 C 315.164062 418.253906 315 411.628906 315 405 C 315 398.371094 315.164062 391.746094 315.488281 385.128906 C 315.8125 378.507812 316.300781 371.898438 316.949219 365.304688 C 317.601562 358.707031 318.410156 352.128906 319.382812 345.574219 C 320.355469 339.019531 321.488281 332.488281 322.78125 325.988281 C 324.074219 319.488281 325.527344 313.023438 327.136719 306.59375 C 328.746094 300.164062 330.515625 293.777344 332.4375 287.433594 C 334.363281 281.09375 336.441406 274.800781 338.675781 268.558594 C 340.90625 262.320312 343.292969 256.136719 345.828125 250.011719 C 348.367188 243.890625 351.050781 237.832031 353.882812 231.839844 C 356.71875 225.847656 359.699219 219.929688 362.820312 214.085938 C 365.945312 208.238281 369.210938 202.472656 372.621094 196.789062 C 376.027344 191.101562 379.574219 185.503906 383.253906 179.992188 C 386.9375 174.484375 390.753906 169.066406 394.699219 163.742188 C 398.648438 158.417969 402.726562 153.195312 406.929688 148.070312 C 411.136719 142.945312 415.464844 137.929688 419.914062 133.019531 C 424.367188 128.109375 428.933594 123.308594 433.621094 118.621094 C 438.308594 113.933594 443.109375 109.367188 448.019531 104.914062 C 452.929688 100.464844 457.945312 96.136719 463.070312 91.929688 C 468.195312 87.726562 473.417969 83.648438 478.742188 79.699219 C 484.066406 75.753906 489.484375 71.9375 494.992188 68.253906 C 500.503906 64.574219 506.101562 61.027344 511.789062 57.621094 C 517.472656 54.210938 523.238281 50.945312 529.085938 47.820312 C 534.929688 44.699219 540.847656 41.71875 546.839844 38.882812 C 552.832031 36.050781 558.890625 33.367188 565.011719 30.828125 C 571.136719 28.292969 577.320312 25.90625 583.558594 23.675781 C 589.800781 21.441406 596.09375 19.363281 602.433594 17.4375 C 608.777344 15.515625 615.164062 13.746094 621.59375 12.136719 C 628.023438 10.527344 634.488281 9.074219 640.988281 7.78125 C 647.488281 6.488281 654.019531 5.355469 660.574219 4.382812 C 667.128906 3.410156 673.707031 2.601562 680.304688 1.949219 C 686.898438 1.300781 693.507812 0.8125 700.128906 0.488281 C 706.746094 0.164062 713.371094 0 720 0 Z M 720 0 " clip-rule="nonzero"/></clipPath><linearGradient x1="5.374784" gradientTransform="matrix(23.823528, 0, 0, 23.823528, 315.000004, 0.00002)" y1="-1.927213" x2="20.050525" gradientUnits="userSpaceOnUse" y2="39.001802" id="a5fbeb2384"><stop stop-opacity="1" stop-color="rgb(56.098938%, 0%, 100%)" offset="0"/><stop stop-opacity="1" stop-color="rgb(56.098938%, 0%, 100%)" offset="0.125"/><stop stop-opacity="1" stop-color="rgb(56.098938%, 0%, 100%)" offset="0.140625"/><stop stop-opacity="1" stop-color="rgb(56.359863%, 0%, 100%)" offset="0.144531"/><stop stop-opacity="1" stop-color="rgb(56.620789%, 0%, 100%)" offset="0.148437"/><stop stop-opacity="1" stop-color="rgb(57.028198%, 0%, 100%)" offset="0.152344"/><stop stop-opacity="1" stop-color="rgb(57.437134%, 0%, 100%)" offset="0.15625"/><stop stop-opacity="1" stop-color="rgb(57.844543%, 0%, 100%)" offset="0.160156"/><stop stop-opacity="1" stop-color="rgb(58.253479%, 0%, 100%)" offset="0.164062"/><stop stop-opacity="1" stop-color="rgb(58.660889%, 0%, 100%)" offset="0.167969"/><stop stop-opacity="1" stop-color="rgb(59.068298%, 0%, 100%)" offset="0.171875"/><stop stop-opacity="1" stop-color="rgb(59.475708%, 0%, 100%)" offset="0.175781"/><stop stop-opacity="1" stop-color="rgb(59.884644%, 0%, 100%)" offset="0.179687"/><stop stop-opacity="1" stop-color="rgb(60.292053%, 0%, 100%)" offset="0.183594"/><stop stop-opacity="1" stop-color="rgb(60.700989%, 0%, 100%)" offset="0.1875"/><stop stop-opacity="1" stop-color="rgb(61.108398%, 0%, 100%)" offset="0.191406"/><stop stop-opacity="1" stop-color="rgb(61.517334%, 0%, 100%)" offset="0.195312"/><stop stop-opacity="1" stop-color="rgb(61.924744%, 0%, 100%)" offset="0.199219"/><stop stop-opacity="1" stop-color="rgb(62.333679%, 0%, 100%)" offset="0.203125"/><stop stop-opacity="1" stop-color="rgb(62.741089%, 0%, 100%)" offset="0.207031"/><stop stop-opacity="1" stop-color="rgb(63.150024%, 0%, 100%)" offset="0.210937"/><stop stop-opacity="1" stop-color="rgb(63.557434%, 0%, 100%)" offset="0.214844"/><stop stop-opacity="1" stop-color="rgb(63.96637%, 0%, 100%)" offset="0.21875"/><stop stop-opacity="1" stop-color="rgb(64.373779%, 0%, 100%)" offset="0.222656"/><stop stop-opacity="1" stop-color="rgb(64.782715%, 0%, 100%)" offset="0.226562"/><stop stop-opacity="1" stop-color="rgb(65.190125%, 0%, 100%)" offset="0.230469"/><stop stop-opacity="1" stop-color="rgb(65.59906%, 0%, 100%)" offset="0.234375"/><stop stop-opacity="1" stop-color="rgb(66.00647%, 0%, 100%)" offset="0.238281"/><stop stop-opacity="1" stop-color="rgb(66.415405%, 0%, 100%)" offset="0.242188"/><stop stop-opacity="1" stop-color="rgb(66.822815%, 0%, 100%)" offset="0.246094"/><stop stop-opacity="1" stop-color="rgb(67.23175%, 0%, 100%)" offset="0.25"/><stop stop-opacity="1" stop-color="rgb(67.63916%, 0%, 100%)" offset="0.253906"/><stop stop-opacity="1" stop-color="rgb(68.04657%, 0%, 100%)" offset="0.257812"/><stop stop-opacity="1" stop-color="rgb(68.453979%, 0%, 100%)" offset="0.261719"/><stop stop-opacity="1" stop-color="rgb(68.862915%, 0%, 100%)" offset="0.265625"/><stop stop-opacity="1" stop-color="rgb(69.270325%, 0%, 100%)" offset="0.269531"/><stop stop-opacity="1" stop-color="rgb(69.67926%, 0%, 100%)" offset="0.273437"/><stop stop-opacity="1" stop-color="rgb(70.08667%, 0%, 100%)" offset="0.277344"/><stop stop-opacity="1" stop-color="rgb(70.495605%, 0%, 100%)" offset="0.28125"/><stop stop-opacity="1" stop-color="rgb(70.903015%, 0%, 100%)" offset="0.285156"/><stop stop-opacity="1" stop-color="rgb(71.311951%, 0%, 100%)" offset="0.289062"/><stop stop-opacity="1" stop-color="rgb(71.71936%, 0%, 100%)" offset="0.292969"/><stop stop-opacity="1" stop-color="rgb(72.128296%, 0%, 100%)" offset="0.296875"/><stop stop-opacity="1" stop-color="rgb(72.535706%, 0%, 100%)" offset="0.300781"/><stop stop-opacity="1" stop-color="rgb(72.944641%, 0%, 100%)" offset="0.304687"/><stop stop-opacity="1" stop-color="rgb(73.352051%, 0%, 100%)" offset="0.308594"/><stop stop-opacity="1" stop-color="rgb(73.760986%, 0%, 100%)" offset="0.3125"/><stop stop-opacity="1" stop-color="rgb(74.168396%, 0%, 100%)" offset="0.316406"/><stop stop-opacity="1" stop-color="rgb(74.577332%, 0%, 100%)" offset="0.320312"/><stop stop-opacity="1" stop-color="rgb(74.984741%, 0%, 100%)" offset="0.324219"/><stop stop-opacity="1" stop-color="rgb(75.393677%, 0%, 100%)" offset="0.328125"/><stop stop-opacity="1" stop-color="rgb(75.801086%, 0%, 100%)" offset="0.332031"/><stop stop-opacity="1" stop-color="rgb(76.210022%, 0%, 100%)" offset="0.335938"/><stop stop-opacity="1" stop-color="rgb(76.617432%, 0%, 100%)" offset="0.339844"/><stop stop-opacity="1" stop-color="rgb(77.024841%, 0%, 100%)" offset="0.34375"/><stop stop-opacity="1" stop-color="rgb(77.432251%, 0%, 100%)" offset="0.347656"/><stop stop-opacity="1" stop-color="rgb(77.841187%, 0%, 100%)" offset="0.351562"/><stop stop-opacity="1" stop-color="rgb(78.248596%, 0%, 100%)" offset="0.355469"/><stop stop-opacity="1" stop-color="rgb(78.657532%, 0%, 100%)" offset="0.359375"/><stop stop-opacity="1" stop-color="rgb(79.064941%, 0%, 100%)" offset="0.363281"/><stop stop-opacity="1" stop-color="rgb(79.473877%, 0%, 100%)" offset="0.367187"/><stop stop-opacity="1" stop-color="rgb(79.881287%, 0%, 100%)" offset="0.371094"/><stop stop-opacity="1" stop-color="rgb(80.290222%, 0%, 100%)" offset="0.375"/><stop stop-opacity="1" stop-color="rgb(80.697632%, 0%, 100%)" offset="0.378906"/><stop stop-opacity="1" stop-color="rgb(81.106567%, 0%, 100%)" offset="0.382812"/><stop stop-opacity="1" stop-color="rgb(81.513977%, 0%, 100%)" offset="0.386719"/><stop stop-opacity="1" stop-color="rgb(81.922913%, 0%, 100%)" offset="0.390625"/><stop stop-opacity="1" stop-color="rgb(82.330322%, 0%, 100%)" offset="0.394531"/><stop stop-opacity="1" stop-color="rgb(82.739258%, 0%, 100%)" offset="0.398437"/><stop stop-opacity="1" stop-color="rgb(83.146667%, 0%, 100%)" offset="0.402344"/><stop stop-opacity="1" stop-color="rgb(83.555603%, 0%, 100%)" offset="0.40625"/><stop stop-opacity="1" stop-color="rgb(83.963013%, 0%, 100%)" offset="0.410156"/><stop stop-opacity="1" stop-color="rgb(84.371948%, 0%, 100%)" offset="0.414062"/><stop stop-opacity="1" stop-color="rgb(84.779358%, 0%, 100%)" offset="0.417969"/><stop stop-opacity="1" stop-color="rgb(85.188293%, 0%, 100%)" offset="0.421875"/><stop stop-opacity="1" stop-color="rgb(85.559082%, 0.0869751%, 99.887085%)" offset="0.425781"/><stop stop-opacity="1" stop-color="rgb(85.931396%, 0.17395%, 99.77417%)" offset="0.429688"/><stop stop-opacity="1" stop-color="rgb(86.054993%, 0.857544%, 98.89679%)" offset="0.433594"/><stop stop-opacity="1" stop-color="rgb(86.178589%, 1.542664%, 98.020935%)" offset="0.4375"/><stop stop-opacity="1" stop-color="rgb(86.302185%, 2.226257%, 97.143555%)" offset="0.441406"/><stop stop-opacity="1" stop-color="rgb(86.425781%, 2.911377%, 96.266174%)" offset="0.445312"/><stop stop-opacity="1" stop-color="rgb(86.549377%, 3.594971%, 95.388794%)" offset="0.449219"/><stop stop-opacity="1" stop-color="rgb(86.672974%, 4.278564%, 94.511414%)" offset="0.453125"/><stop stop-opacity="1" stop-color="rgb(86.79657%, 4.962158%, 93.634033%)" offset="0.457031"/><stop stop-opacity="1" stop-color="rgb(86.920166%, 5.647278%, 92.758179%)" offset="0.460937"/><stop stop-opacity="1" stop-color="rgb(87.043762%, 6.330872%, 91.880798%)" offset="0.464844"/><stop stop-opacity="1" stop-color="rgb(87.167358%, 7.015991%, 91.003418%)" offset="0.46875"/><stop stop-opacity="1" stop-color="rgb(87.290955%, 7.699585%, 90.126038%)" offset="0.472656"/><stop stop-opacity="1" stop-color="rgb(87.414551%, 8.383179%, 89.250183%)" offset="0.476562"/><stop stop-opacity="1" stop-color="rgb(87.538147%, 9.066772%, 88.372803%)" offset="0.480469"/><stop stop-opacity="1" stop-color="rgb(87.661743%, 9.751892%, 87.495422%)" offset="0.484375"/><stop stop-opacity="1" stop-color="rgb(87.785339%, 10.435486%, 86.618042%)" offset="0.488281"/><stop stop-opacity="1" stop-color="rgb(87.908936%, 11.120605%, 85.740662%)" offset="0.492187"/><stop stop-opacity="1" stop-color="rgb(88.032532%, 11.804199%, 84.863281%)" offset="0.496094"/><stop stop-opacity="1" stop-color="rgb(88.157654%, 12.489319%, 83.987427%)" offset="0.5"/><stop stop-opacity="1" stop-color="rgb(88.28125%, 13.172913%, 83.110046%)" offset="0.503906"/><stop stop-opacity="1" stop-color="rgb(88.404846%, 13.856506%, 82.232666%)" offset="0.507812"/><stop stop-opacity="1" stop-color="rgb(88.528442%, 14.5401%, 81.355286%)" offset="0.511719"/><stop stop-opacity="1" stop-color="rgb(88.652039%, 15.22522%, 80.479431%)" offset="0.515625"/><stop stop-opacity="1" stop-color="rgb(88.775635%, 15.908813%, 79.602051%)" offset="0.519531"/><stop stop-opacity="1" stop-color="rgb(88.899231%, 16.593933%, 78.72467%)" offset="0.523438"/><stop stop-opacity="1" stop-color="rgb(89.022827%, 17.277527%, 77.84729%)" offset="0.527344"/><stop stop-opacity="1" stop-color="rgb(89.146423%, 17.961121%, 76.96991%)" offset="0.53125"/><stop stop-opacity="1" stop-color="rgb(89.27002%, 18.644714%, 76.092529%)" offset="0.535156"/><stop stop-opacity="1" stop-color="rgb(89.393616%, 19.329834%, 75.216675%)" offset="0.539062"/><stop stop-opacity="1" stop-color="rgb(89.517212%, 20.013428%, 74.339294%)" offset="0.542969"/><stop stop-opacity="1" stop-color="rgb(89.640808%, 20.698547%, 73.461914%)" offset="0.546875"/><stop stop-opacity="1" stop-color="rgb(89.764404%, 21.382141%, 72.584534%)" offset="0.550781"/><stop stop-opacity="1" stop-color="rgb(89.888%, 22.065735%, 71.708679%)" offset="0.554687"/><stop stop-opacity="1" stop-color="rgb(90.011597%, 22.749329%, 70.831299%)" offset="0.558594"/><stop stop-opacity="1" stop-color="rgb(90.135193%, 23.434448%, 69.953918%)" offset="0.5625"/><stop stop-opacity="1" stop-color="rgb(90.258789%, 24.118042%, 69.076538%)" offset="0.566406"/><stop stop-opacity="1" stop-color="rgb(90.382385%, 24.803162%, 68.199158%)" offset="0.570312"/><stop stop-opacity="1" stop-color="rgb(90.505981%, 25.486755%, 67.321777%)" offset="0.574219"/><stop stop-opacity="1" stop-color="rgb(90.629578%, 26.170349%, 66.445923%)" offset="0.578125"/><stop stop-opacity="1" stop-color="rgb(90.753174%, 26.853943%, 65.568542%)" offset="0.582031"/><stop stop-opacity="1" stop-color="rgb(90.878296%, 27.539062%, 64.691162%)" offset="0.585937"/><stop stop-opacity="1" stop-color="rgb(91.001892%, 28.222656%, 63.813782%)" offset="0.589844"/><stop stop-opacity="1" stop-color="rgb(91.125488%, 28.907776%, 62.937927%)" offset="0.59375"/><stop stop-opacity="1" stop-color="rgb(91.249084%, 29.59137%, 62.060547%)" offset="0.597656"/><stop stop-opacity="1" stop-color="rgb(91.372681%, 30.276489%, 61.183167%)" offset="0.601562"/><stop stop-opacity="1" stop-color="rgb(91.496277%, 30.960083%, 60.305786%)" offset="0.605469"/><stop stop-opacity="1" stop-color="rgb(91.619873%, 31.643677%, 59.428406%)" offset="0.609375"/><stop stop-opacity="1" stop-color="rgb(91.743469%, 32.327271%, 58.551025%)" offset="0.613281"/><stop stop-opacity="1" stop-color="rgb(91.867065%, 33.01239%, 57.675171%)" offset="0.617188"/><stop stop-opacity="1" stop-color="rgb(91.990662%, 33.695984%, 56.797791%)" offset="0.621094"/><stop stop-opacity="1" stop-color="rgb(92.114258%, 34.381104%, 55.92041%)" offset="0.625"/><stop stop-opacity="1" stop-color="rgb(92.237854%, 35.064697%, 55.04303%)" offset="0.628906"/><stop stop-opacity="1" stop-color="rgb(92.36145%, 35.748291%, 54.167175%)" offset="0.632813"/><stop stop-opacity="1" stop-color="rgb(92.485046%, 36.431885%, 53.289795%)" offset="0.636719"/><stop stop-opacity="1" stop-color="rgb(92.608643%, 37.117004%, 52.412415%)" offset="0.640625"/><stop stop-opacity="1" stop-color="rgb(92.732239%, 37.800598%, 51.535034%)" offset="0.644531"/><stop stop-opacity="1" stop-color="rgb(92.855835%, 38.485718%, 50.657654%)" offset="0.648438"/><stop stop-opacity="1" stop-color="rgb(92.979431%, 39.169312%, 49.780273%)" offset="0.652344"/><stop stop-opacity="1" stop-color="rgb(93.103027%, 39.852905%, 48.904419%)" offset="0.65625"/><stop stop-opacity="1" stop-color="rgb(93.226624%, 40.536499%, 48.027039%)" offset="0.660156"/><stop stop-opacity="1" stop-color="rgb(93.351746%, 41.221619%, 47.149658%)" offset="0.664062"/><stop stop-opacity="1" stop-color="rgb(93.475342%, 41.905212%, 46.272278%)" offset="0.667969"/><stop stop-opacity="1" stop-color="rgb(93.598938%, 42.590332%, 45.396423%)" offset="0.671875"/><stop stop-opacity="1" stop-color="rgb(93.722534%, 43.273926%, 44.519043%)" offset="0.675781"/><stop stop-opacity="1" stop-color="rgb(93.84613%, 43.95752%, 43.641663%)" offset="0.679688"/><stop stop-opacity="1" stop-color="rgb(93.969727%, 44.641113%, 42.764282%)" offset="0.683594"/><stop stop-opacity="1" stop-color="rgb(94.093323%, 45.326233%, 41.886902%)" offset="0.6875"/><stop stop-opacity="1" stop-color="rgb(94.216919%, 46.009827%, 41.009521%)" offset="0.691406"/><stop stop-opacity="1" stop-color="rgb(94.340515%, 46.694946%, 40.133667%)" offset="0.695312"/><stop stop-opacity="1" stop-color="rgb(94.464111%, 47.37854%, 39.256287%)" offset="0.699219"/><stop stop-opacity="1" stop-color="rgb(94.587708%, 48.062134%, 38.378906%)" offset="0.703125"/><stop stop-opacity="1" stop-color="rgb(94.711304%, 48.745728%, 37.501526%)" offset="0.707031"/><stop stop-opacity="1" stop-color="rgb(94.8349%, 49.430847%, 36.625671%)" offset="0.710938"/><stop stop-opacity="1" stop-color="rgb(94.958496%, 50.114441%, 35.748291%)" offset="0.714844"/><stop stop-opacity="1" stop-color="rgb(95.082092%, 50.799561%, 34.870911%)" offset="0.71875"/><stop stop-opacity="1" stop-color="rgb(95.205688%, 51.483154%, 33.99353%)" offset="0.722656"/><stop stop-opacity="1" stop-color="rgb(95.329285%, 52.168274%, 33.11615%)" offset="0.726562"/><stop stop-opacity="1" stop-color="rgb(95.452881%, 52.851868%, 32.23877%)" offset="0.730469"/><stop stop-opacity="1" stop-color="rgb(95.576477%, 53.535461%, 31.362915%)" offset="0.734375"/><stop stop-opacity="1" stop-color="rgb(95.700073%, 54.219055%, 30.485535%)" offset="0.738281"/><stop stop-opacity="1" stop-color="rgb(95.823669%, 54.904175%, 29.608154%)" offset="0.742187"/><stop stop-opacity="1" stop-color="rgb(95.947266%, 55.587769%, 28.730774%)" offset="0.746094"/><stop stop-opacity="1" stop-color="rgb(96.072388%, 56.272888%, 27.854919%)" offset="0.75"/><stop stop-opacity="1" stop-color="rgb(96.195984%, 56.956482%, 26.977539%)" offset="0.753906"/><stop stop-opacity="1" stop-color="rgb(96.31958%, 57.640076%, 26.100159%)" offset="0.757812"/><stop stop-opacity="1" stop-color="rgb(96.443176%, 58.323669%, 25.222778%)" offset="0.761719"/><stop stop-opacity="1" stop-color="rgb(96.566772%, 59.008789%, 24.345398%)" offset="0.765625"/><stop stop-opacity="1" stop-color="rgb(96.690369%, 59.692383%, 23.468018%)" offset="0.769531"/><stop stop-opacity="1" stop-color="rgb(96.813965%, 60.377502%, 22.592163%)" offset="0.773437"/><stop stop-opacity="1" stop-color="rgb(96.937561%, 61.061096%, 21.714783%)" offset="0.777344"/><stop stop-opacity="1" stop-color="rgb(97.061157%, 61.74469%, 20.837402%)" offset="0.78125"/><stop stop-opacity="1" stop-color="rgb(97.184753%, 62.428284%, 19.960022%)" offset="0.785156"/><stop stop-opacity="1" stop-color="rgb(97.30835%, 63.113403%, 19.084167%)" offset="0.789062"/><stop stop-opacity="1" stop-color="rgb(97.431946%, 63.796997%, 18.206787%)" offset="0.792969"/><stop stop-opacity="1" stop-color="rgb(97.555542%, 64.482117%, 17.329407%)" offset="0.796875"/><stop stop-opacity="1" stop-color="rgb(97.679138%, 65.16571%, 16.452026%)" offset="0.800781"/><stop stop-opacity="1" stop-color="rgb(97.802734%, 65.849304%, 15.574646%)" offset="0.804688"/><stop stop-opacity="1" stop-color="rgb(97.926331%, 66.532898%, 14.697266%)" offset="0.808594"/><stop stop-opacity="1" stop-color="rgb(98.049927%, 67.218018%, 13.821411%)" offset="0.8125"/><stop stop-opacity="1" stop-color="rgb(98.173523%, 67.901611%, 12.944031%)" offset="0.816406"/><stop stop-opacity="1" stop-color="rgb(98.297119%, 68.586731%, 12.06665%)" offset="0.820313"/><stop stop-opacity="1" stop-color="rgb(98.420715%, 69.270325%, 11.18927%)" offset="0.824219"/><stop stop-opacity="1" stop-color="rgb(98.544312%, 69.955444%, 10.313416%)" offset="0.828125"/><stop stop-opacity="1" stop-color="rgb(98.667908%, 70.639038%, 9.436035%)" offset="0.832031"/><stop stop-opacity="1" stop-color="rgb(98.79303%, 71.322632%, 8.558655%)" offset="0.835938"/><stop stop-opacity="1" stop-color="rgb(98.916626%, 72.006226%, 7.681274%)" offset="0.839844"/><stop stop-opacity="1" stop-color="rgb(99.040222%, 72.691345%, 6.803894%)" offset="0.84375"/><stop stop-opacity="1" stop-color="rgb(99.163818%, 73.374939%, 5.926514%)" offset="0.847656"/><stop stop-opacity="1" stop-color="rgb(99.287415%, 74.060059%, 5.050659%)" offset="0.851562"/><stop stop-opacity="1" stop-color="rgb(99.411011%, 74.743652%, 4.173279%)" offset="0.855469"/><stop stop-opacity="1" stop-color="rgb(99.534607%, 75.427246%, 3.295898%)" offset="0.859375"/><stop stop-opacity="1" stop-color="rgb(99.658203%, 76.11084%, 2.418518%)" offset="0.863281"/><stop stop-opacity="1" stop-color="rgb(99.781799%, 76.795959%, 1.542664%)" offset="0.867188"/><stop stop-opacity="1" stop-color="rgb(99.890137%, 77.497864%, 1.225281%)" offset="0.871094"/><stop stop-opacity="1" stop-color="rgb(100%, 78.199768%, 0.909424%)" offset="0.875"/><stop stop-opacity="1" stop-color="rgb(100%, 79.029846%, 4.685974%)" offset="0.878906"/><stop stop-opacity="1" stop-color="rgb(100%, 79.86145%, 8.46405%)" offset="0.882812"/><stop stop-opacity="1" stop-color="rgb(100%, 80.691528%, 12.240601%)" offset="0.886719"/><stop stop-opacity="1" stop-color="rgb(100%, 81.523132%, 16.018677%)" offset="0.890625"/><stop stop-opacity="1" stop-color="rgb(100%, 82.35321%, 19.795227%)" offset="0.894531"/><stop stop-opacity="1" stop-color="rgb(100%, 83.184814%, 23.571777%)" offset="0.898437"/><stop stop-opacity="1" stop-color="rgb(100%, 84.014893%, 27.348328%)" offset="0.902344"/><stop stop-opacity="1" stop-color="rgb(100%, 84.846497%, 31.126404%)" offset="0.90625"/><stop stop-opacity="1" stop-color="rgb(100%, 85.678101%, 34.902954%)" offset="0.910156"/><stop stop-opacity="1" stop-color="rgb(100%, 86.509705%, 38.68103%)" offset="0.914062"/><stop stop-opacity="1" stop-color="rgb(100%, 87.339783%, 42.457581%)" offset="0.917969"/><stop stop-opacity="1" stop-color="rgb(100%, 88.171387%, 46.234131%)" offset="0.921875"/><stop stop-opacity="1" stop-color="rgb(100%, 89.001465%, 50.010681%)" offset="0.925781"/><stop stop-opacity="1" stop-color="rgb(100%, 89.833069%, 53.788757%)" offset="0.929687"/><stop stop-opacity="1" stop-color="rgb(100%, 90.663147%, 57.565308%)" offset="0.933594"/><stop stop-opacity="1" stop-color="rgb(100%, 91.494751%, 61.343384%)" offset="0.9375"/><stop stop-opacity="1" stop-color="rgb(100%, 92.324829%, 65.119934%)" offset="0.941406"/><stop stop-opacity="1" stop-color="rgb(100%, 93.156433%, 68.896484%)" offset="0.945312"/><stop stop-opacity="1" stop-color="rgb(100%, 93.986511%, 72.673035%)" offset="0.949219"/><stop stop-opacity="1" stop-color="rgb(100%, 94.818115%, 76.451111%)" offset="0.953125"/><stop stop-opacity="1" stop-color="rgb(100%, 95.649719%, 80.227661%)" offset="0.957031"/><stop stop-opacity="1" stop-color="rgb(100%, 96.481323%, 84.005737%)" offset="0.960937"/><stop stop-opacity="1" stop-color="rgb(100%, 97.311401%, 87.782288%)" offset="0.964844"/><stop stop-opacity="1" stop-color="rgb(100%, 98.143005%, 91.560364%)" offset="0.96875"/><stop stop-opacity="1" stop-color="rgb(100%, 98.973083%, 95.336914%)" offset="0.972656"/><stop stop-opacity="1" stop-color="rgb(100%, 99.804688%, 99.113464%)" offset="0.976562"/><stop stop-opacity="1" stop-color="rgb(100%, 99.902344%, 99.555969%)" offset="0.980469"/><stop stop-opacity="1" stop-color="rgb(100%, 100%, 100%)" offset="0.984375"/><stop stop-opacity="1" stop-color="rgb(100%, 100%, 100%)" offset="1"/></linearGradient></defs><g clip-path="url(#7680e4be3b)"><g clip-path="url(#4eb119a82d)"><path fill="url(#a5fbeb2384)" d="M 315 0 L 315 810 L 1125 810 L 1125 0 Z M 315 0 " fill-rule="nonzero"/></g></g><path fill="#ffffff" d="M 720 190.589844 C 601.582031 190.589844 505.589844 286.582031 505.589844 405 C 505.589844 461.847656 527.710938 513.527344 563.816406 551.902344 C 579.65625 521.246094 611.644531 500.292969 648.53125 500.292969 L 791.46875 500.292969 C 828.355469 500.292969 860.34375 521.246094 876.183594 551.902344 C 912.289062 513.527344 934.410156 461.847656 934.410156 405 C 934.410156 286.582031 838.417969 190.589844 720 190.589844 Z M 837.75 584.210938 C 832.652344 563.390625 813.863281 547.941406 791.46875 547.941406 L 648.53125 547.941406 C 626.136719 547.941406 607.347656 563.390625 602.25 584.210938 C 636.046875 606.464844 676.511719 619.410156 720 619.410156 C 763.488281 619.410156 803.953125 606.464844 837.75 584.210938 Z M 457.941406 405 C 457.941406 260.269531 575.269531 142.941406 720 142.941406 C 864.730469 142.941406 982.058594 260.269531 982.058594 405 C 982.058594 549.730469 864.730469 667.058594 720 667.058594 C 575.269531 667.058594 457.941406 549.730469 457.941406 405 Z M 720 285.882812 C 680.527344 285.882812 648.53125 317.878906 648.53125 357.351562 C 648.53125 396.824219 680.527344 428.824219 720 428.824219 C 759.472656 428.824219 791.46875 396.824219 791.46875 357.351562 C 791.46875 317.878906 759.472656 285.882812 720 285.882812 Z M 600.882812 357.351562 C 600.882812 291.566406 654.214844 238.234375 720 238.234375 C 785.785156 238.234375 839.117188 291.566406 839.117188 357.351562 C 839.117188 423.140625 785.785156 476.46875 720 476.46875 C 654.214844 476.46875 600.882812 423.140625 600.882812 357.351562 Z M 600.882812 357.351562 " fill-opacity="1" fill-rule="evenodd"/></svg>