<svg xmlns="http://www.w3.org/2000/svg" xmlns:xlink="http://www.w3.org/1999/xlink" width="1920" zoomAndPan="magnify" viewBox="0 0 1440 809.999993" height="1080" preserveAspectRatio="xMidYMid meet" version="1.0"><path fill="#cb1f27" d="M 315 405 C 315 570.859375 414.726562 713.304688 557.425781 775.953125 C 556.289062 747.667969 557.226562 713.71875 564.476562 682.960938 C 572.261719 650.089844 616.589844 462.269531 616.589844 462.269531 C 616.589844 462.269531 603.652344 436.417969 603.652344 398.195312 C 603.652344 338.175781 638.429688 293.347656 681.746094 293.347656 C 718.609375 293.347656 736.390625 321.027344 736.390625 354.152344 C 736.390625 391.171875 712.785156 446.574219 700.636719 497.898438 C 690.480469 540.832031 722.183594 575.890625 764.550781 575.890625 C 841.277344 575.890625 892.980469 477.332031 892.980469 360.542969 C 892.980469 271.789062 833.179688 205.351562 724.429688 205.351562 C 601.589844 205.351562 525.054688 296.96875 525.054688 399.304688 C 525.054688 434.582031 535.460938 459.484375 551.753906 478.753906 C 559.246094 487.582031 560.289062 491.15625 557.574219 501.3125 C 555.632812 508.78125 551.171875 526.722656 549.324219 533.808594 C 546.628906 544.09375 538.316406 547.730469 529.046875 543.964844 C 472.460938 520.867188 446.105469 458.882812 446.105469 389.242188 C 446.105469 274.179688 543.136719 136.226562 735.566406 136.226562 C 890.195312 136.226562 991.949219 248.121094 991.949219 368.234375 C 991.949219 527.101562 903.640625 645.785156 773.441406 645.785156 C 729.714844 645.785156 688.582031 622.179688 674.5 595.316406 C 674.5 595.316406 650.960938 688.625 645.992188 706.660156 C 637.417969 737.890625 620.601562 769.089844 605.234375 793.421875 C 641.65625 804.179688 680.132812 810.03125 720 810.03125 C 943.667969 810.03125 1125 628.699219 1125 405 C 1125 181.328125 943.667969 0 720 0 C 496.34375 0 315 181.328125 315 405 Z M 315 405 " fill-opacity="1" fill-rule="nonzero"/></svg>